# xmcd
#
# Track frame offsets:
#	150
#	15052
#	29353
#	41473
#	58218
#	69165
#	82414
#	97776
#	112054
#	125022
#	146047
#	159347
#	176196
#	188492
#	209859
#	230483
#
# Disc length: 3324 seconds
#
# Revision: 2
# Processed by: cddbd v1.5.2PL0 Copyright (c) Steve Scherf et al.
# Submitted via: audiograbber 1.83.01
#
DISCID=de0cfa10
DTITLE=Minns Du sången - Minns Du sången 3
DYEAR=2000
DGENRE=
TTITLE0=Cilla Lunberg-Hector, Dan Inge Olsson, Elisabeth Sehlin, Roland Lundgre
TTITLE0=n - Tro på Jesus
TTITLE1=Torkel Selin, Per Filip Waldenstad - Barnatro
TTITLE2=Clas Vårdstedt - Jag vill för evigt lova Herren
TTITLE3=Staffan Sandlund, Erik Ström - Samme Gud
TTITLE4=Efva Nyström, Sara Bengtsson - Jag lyfter ögat mot himmelen
TTITLE5=Lars Mörlid - Såsom han har älskat
TTITLE6=Målle Lindberg - Jag är härligt löst och fri
TTITLE7=Anne Marie and Arnold Börud - Jesus, här är jag
TTITLE8=Anders Andersson - Jag är främling
TTITLE9=Lars Mörlid, Hasse Hallström - Vilken trofasthet
TTITLE10=Eva Granat, Nils Börge Gårdh - Herre kär, tag min hand
TTITLE11=Ny-David Nygren - Snaran har gått sönder
TTITLE12=Lars Åke Lundberg, Kersti Smårs-Esselwall - Dina händer är fulla med b
TTITLE12=lommor
TTITLE13=Bengt Johansson, Cilla Lundberg-Hector - Bara i dig - Smaka och se
TTITLE14=Ingmar Johansson - Alltid på väg
TTITLE15=Nils Stenlund, Jard Samuelson - Tänk när släkt och vänner
EXTD=
EXTT0=
EXTT1=
EXTT2=
EXTT3=
EXTT4=
EXTT5=
EXTT6=
EXTT7=
EXTT8=
EXTT9=
EXTT10=
EXTT11=
EXTT12=
EXTT13=
EXTT14=
EXTT15=
PLAYORDER=
